HIERARCHY
ROOT joint_Root
{
	OFFSET 0.0 0.0 0.0
	CHANNELS 6 Xposition Yposition Zposition Zrotation Xrotation Yrotation 
	JOINT Hips
	{
		OFFSET 4.5925 91.4895 -427.239
		CHANNELS 6 Xposition Yposition Zposition Zrotation Xrotation Yrotation 
		JOINT Spine
		{
			OFFSET 15.7357 0.0 0.0
			CHANNELS 6 Xposition Yposition Zposition Zrotation Xrotation Yrotation 
			JOINT Chest
			{
				OFFSET 8.98455 -0.406207 0.0
				CHANNELS 6 Xposition Yposition Zposition Zrotation Xrotation Yrotation 
				JOINT Neck
				{
					OFFSET 16.3773 0.0 0.0
					CHANNELS 6 Xposition Yposition Zposition Zrotation Xrotation Yrotation 
					JOINT Head
					{
						OFFSET 6.45672 0.0 0.0
						CHANNELS 6 Xposition Yposition Zposition Zrotation Xrotation Yrotation 
						End Site
						{
							OFFSET 0.0 0.0 0.0
						}
					}
				}
				JOINT Shoulder_L
				{
					OFFSET 12.9942 -0.242716 4.98039
					CHANNELS 6 Xposition Yposition Zposition Zrotation Xrotation Yrotation 
					JOINT UpperArm_L
					{
						OFFSET 5.34809 0.0 0.0
						CHANNELS 6 Xposition Yposition Zposition Zrotation Xrotation Yrotation 
						JOINT LowerArm_L
						{
							OFFSET 24.3286 1.87007e-05 0.0
							CHANNELS 6 Xposition Yposition Zposition Zrotation Xrotation Yrotation 
							JOINT Hand_L
							{
								OFFSET 22.2916 0.0 0.0
								CHANNELS 6 Xposition Yposition Zposition Zrotation Xrotation Yrotation 
								End Site
								{
									OFFSET 0.0 0.0 0.0
								}
							}
						}
					}
				}
				JOINT Shoulder_R
				{
					OFFSET 12.9945 -0.242716 -4.98039
					CHANNELS 6 Xposition Yposition Zposition Zrotation Xrotation Yrotation 
					JOINT UpperArm_R
					{
						OFFSET -5.34813 0.0 0.0
						CHANNELS 6 Xposition Yposition Zposition Zrotation Xrotation Yrotation 
						JOINT LowerArm_R
						{
							OFFSET -24.3289 0.000322201 0.0
							CHANNELS 6 Xposition Yposition Zposition Zrotation Xrotation Yrotation 
							JOINT Hand_R
							{
								OFFSET -22.2915 -0.000108084 0.0
								CHANNELS 6 Xposition Yposition Zposition Zrotation Xrotation Yrotation 
								End Site
								{
									OFFSET 0.0 0.0 0.0
								}
							}
						}
					}
				}
			}
		}
		JOINT UpperLeg_L
		{
			OFFSET -2.19248 -6.46944 0.0
			CHANNELS 6 Xposition Yposition Zposition Zrotation Xrotation Yrotation 
			JOINT LowerLeg_L
			{
				OFFSET 39.0811 0.0 -1.23785e-05
				CHANNELS 6 Xposition Yposition Zposition Zrotation Xrotation Yrotation 
				JOINT Foot_L
				{
					OFFSET 40.9854 0.0 -1.26872e-05
					CHANNELS 6 Xposition Yposition Zposition Zrotation Xrotation Yrotation 
					JOINT Toes_L
					{
						OFFSET 11.7543 0.0 0.0
						CHANNELS 6 Xposition Yposition Zposition Zrotation Xrotation Yrotation 
						End Site
						{
							OFFSET 0.0 0.0 0.0
						}
					}
				}
			}
		}
		JOINT UpperLeg_R
		{
			OFFSET -2.19251 6.46944 0.0
			CHANNELS 6 Xposition Yposition Zposition Zrotation Xrotation Yrotation 
			JOINT LowerLeg_R
			{
				OFFSET -39.0811 -0.00228153 -0.0401928
				CHANNELS 6 Xposition Yposition Zposition Zrotation Xrotation Yrotation 
				JOINT Foot_R
				{
					OFFSET -40.9854 0.0 0.0
					CHANNELS 6 Xposition Yposition Zposition Zrotation Xrotation Yrotation 
					JOINT Toes_R
					{
						OFFSET -11.7543 0.0 0.0
						CHANNELS 6 Xposition Yposition Zposition Zrotation Xrotation Yrotation 
						End Site
						{
							OFFSET 0.0 0.0 0.0
						}
					}
				}
			}
		}
	}
}
MOTION
Frames:	8
Frame Time:	0.0333333
0.000000 0.000000 0.000000 0.000000 0.000000 -0.000000 -0.377702 90.358500 3.948920 90.027500 -2.872510 8.990110 15.735700 0.000005 -0.000001 86.402100 83.064000 -86.564800 8.984550 -0.406207 -0.000000 6.077900 -0.865746 -0.278981 16.377300 -0.000001 -0.000001 3.174410 -5.109510 2.285930 6.456720 -0.000001 -0.000000 -13.453200 -4.546760 -0.723612 12.994200 -0.242716 4.980390 -92.001500 7.183240 -74.385200 5.348090 -0.000007 -0.000001 -63.610500 30.140900 -14.895700 24.328600 0.000019 0.000005 7.989930 22.591700 -20.071000 22.291600 -0.000001 0.000005 9.359730 5.296190 0.178958 12.994500 -0.242716 -4.980390 88.411200 11.227700 -81.892700 -5.348130 -0.000001 -0.000004 -63.036400 24.465200 -10.405000 -24.328900 0.000322 -0.000009 1.700860 4.679910 -20.011400 -22.291500 -0.000108 -0.000004 13.254600 5.390920 -2.644610 -2.192480 -6.469440 -0.000000 -174.831000 -13.553600 2.078580 39.081100 -0.000007 -0.000012 -0.205839 0.349829 30.472800 40.985400 -0.000006 -0.000013 0.047638 5.029290 -73.154800 11.754300 -0.000000 0.000003 -0.000104 -0.001061 -16.618200 -2.192510 6.469440 -0.000001 172.051000 21.926400 -175.794000 -39.081100 -0.002282 -0.040193 -0.265649 0.472199 29.665100 -40.985400 0.000008 0.000006 2.127590 12.211300 -73.703300 -11.754300 -0.000006 -0.000006 -0.001559 -0.023050 -17.510400
0.000000 0.000000 0.000000 0.000000 0.000000 -0.000000 -0.362887 90.354600 3.943880 90.043100 -2.834120 9.063430 15.735700 0.000005 -0.000001 86.526700 83.032300 -86.688700 8.984550 -0.406207 -0.000000 6.143140 -0.839628 -0.278636 16.377300 -0.000001 -0.000001 3.507610 -5.321980 2.334560 6.456720 -0.000001 -0.000000 -13.069500 -4.995740 -0.356973 12.994200 -0.242716 4.980390 -92.010100 7.161960 -74.277600 5.348090 -0.000007 -0.000001 -64.162500 28.743900 -15.268900 24.328600 0.000019 0.000005 8.065740 20.999400 -21.576200 22.291600 -0.000001 0.000005 9.703520 5.297730 0.135851 12.994500 -0.242716 -4.980390 88.380400 11.271200 -81.768800 -5.348130 -0.000001 -0.000004 -63.153500 22.642400 -10.716800 -24.328900 0.000322 -0.000009 1.447950 3.670690 -21.560100 -22.291500 -0.000108 -0.000004 13.780900 5.398120 -2.876190 -2.192480 -6.469440 -0.000000 -174.846000 -13.522900 2.139040 39.081100 -0.000007 -0.000012 -0.205590 0.349205 30.487200 40.985400 -0.000006 -0.000013 0.059520 5.027360 -73.160600 11.754300 -0.000000 0.000003 -0.000100 -0.001028 -16.617000 -2.192510 6.469440 -0.000001 171.998000 21.965900 -175.732000 -39.081100 -0.002282 -0.040193 -0.261819 0.464673 29.707600 -40.985400 0.000008 0.000006 2.191680 12.204000 -73.737800 -11.754300 -0.000006 -0.000006 -0.001460 -0.021740 -17.457100
0.000000 0.000000 0.000000 0.000000 0.000000 -0.000000 -0.352083 90.353200 3.903510 90.067200 -2.772730 9.092580 15.735700 0.000005 -0.000001 86.707000 83.022600 -86.874100 8.984550 -0.406207 -0.000000 6.165080 -0.797020 -0.290889 16.377300 -0.000001 -0.000001 3.897400 -5.539010 2.339610 6.456720 -0.000001 -0.000000 -12.653100 -5.401040 -0.063979 12.994200 -0.242716 4.980390 -92.018900 7.160540 -74.209000 5.348090 -0.000007 -0.000001 -64.063800 27.928900 -16.108000 24.328600 0.000019 0.000005 8.499760 20.036200 -23.566600 22.291600 -0.000001 0.000005 9.881620 5.297440 0.143978 12.994500 -0.242716 -4.980390 88.353200 11.330100 -81.674500 -5.348130 -0.000001 -0.000004 -62.838300 21.586900 -11.179000 -24.328900 0.000322 -0.000009 1.204710 2.772680 -23.514200 -22.291500 -0.000108 -0.000004 14.126900 5.400030 -2.938340 -2.192480 -6.469440 -0.000000 -174.875000 -13.512300 2.109650 39.081100 -0.000007 -0.000012 -0.205230 0.348133 30.520400 40.985400 -0.000006 -0.000013 0.092381 5.087310 -73.142000 11.754300 -0.000000 0.000003 -0.000098 -0.001009 -16.616300 -2.192510 6.469440 -0.000001 171.993000 21.914200 -175.766000 -39.081100 -0.002282 -0.040193 -0.260113 0.460528 29.769400 -40.985400 0.000008 0.000006 2.232950 12.107300 -73.755000 -11.754300 -0.000006 -0.000006 -0.001508 -0.022383 -17.483300
0.000000 0.000000 0.000000 0.000000 0.000000 -0.000000 -0.345684 90.353900 3.863880 90.085100 -2.644880 9.131070 15.735700 0.000005 -0.000001 86.657600 83.033000 -86.833900 8.984550 -0.406207 -0.000000 6.143510 -0.807648 -0.308905 16.377300 -0.000001 -0.000001 4.337960 -5.709990 2.291400 6.456720 -0.000001 -0.000000 -12.086300 -5.709550 0.141196 12.994200 -0.242716 4.980390 -92.021400 7.177810 -74.226200 5.348090 -0.000007 -0.000001 -63.366900 27.365500 -17.302000 24.328600 0.000019 0.000005 9.018180 19.195700 -25.766400 22.291600 -0.000001 0.000005 9.707520 5.299610 0.083395 12.994500 -0.242716 -4.980390 88.350100 11.330100 -81.659200 -5.348130 -0.000001 -0.000004 -62.295100 20.876400 -11.741500 -24.328900 0.000322 -0.000009 1.213650 2.522220 -25.726900 -22.291500 -0.000108 -0.000004 14.434400 5.405810 -3.127120 -2.192480 -6.469440 -0.000000 -174.910000 -13.426500 2.088020 39.081100 -0.000007 -0.000012 -0.203058 0.344107 30.545100 40.985400 -0.000006 -0.000013 0.110408 5.112980 -73.117900 11.754300 -0.000000 0.000003 -0.000105 -0.001071 -16.618600 -2.192510 6.469440 -0.000001 171.925000 22.026300 -175.722000 -39.081100 -0.002282 -0.040193 -0.261471 0.462845 29.772400 -40.985400 0.000008 0.000006 2.148130 12.132500 -73.723500 -11.754300 -0.000006 -0.000006 -0.001444 -0.021531 -17.448700
0.000000 0.000000 0.000000 0.000000 0.000000 -0.000000 -0.343353 90.351100 3.813370 90.115500 -2.503680 9.270790 15.735700 0.000005 -0.000001 86.573600 83.014000 -86.758500 8.984550 -0.406207 -0.000000 6.180240 -0.830169 -0.324676 16.377300 -0.000001 -0.000001 4.807500 -5.834280 2.212260 6.456720 -0.000001 -0.000000 -11.435100 -5.921460 0.160901 12.994200 -0.242716 4.980390 -92.027200 7.235270 -74.302200 5.348090 -0.000007 -0.000001 -62.468800 26.396500 -18.829000 24.328600 0.000019 0.000005 9.595770 18.693500 -27.810900 22.291600 -0.000001 0.000005 9.829830 5.304250 -0.047297 12.994500 -0.242716 -4.980390 88.358300 11.287700 -81.669800 -5.348130 -0.000001 -0.000004 -61.555000 20.329600 -12.462500 -24.328900 0.000322 -0.000009 1.158290 2.164880 -28.178600 -22.291500 -0.000108 -0.000004 14.740800 5.406830 -3.160720 -2.192480 -6.469440 -0.000000 -174.920000 -13.347100 2.154630 39.081100 -0.000007 -0.000012 -0.203928 0.345039 30.584700 40.985400 -0.000006 -0.000013 0.138079 5.186430 -73.092100 11.754300 -0.000000 0.000003 -0.000103 -0.001059 -16.618100 -2.192510 6.469440 -0.000001 171.837000 22.128200 -175.621000 -39.081100 -0.002282 -0.040193 -0.261380 0.461360 29.843400 -40.985400 0.000008 0.000006 2.187890 12.060100 -73.741300 -11.754300 -0.000006 -0.000006 -0.001395 -0.020871 -17.421800
0.000000 0.000000 0.000000 0.000000 0.000000 -0.000000 -0.341398 90.350900 3.750290 90.179800 -2.336590 9.422720 15.735700 0.000005 -0.000001 86.465200 83.008900 -86.666900 8.984550 -0.406207 -0.000000 6.188640 -0.856887 -0.356793 16.377300 -0.000001 -0.000001 5.298400 -5.925370 2.094310 6.456720 -0.000001 -0.000000 -10.735900 -6.031340 0.018431 12.994200 -0.242716 4.980390 -92.023200 7.294790 -74.452800 5.348090 -0.000007 -0.000001 -61.346800 25.243200 -20.557500 24.328600 0.000019 0.000005 10.025100 17.974200 -29.806700 22.291600 -0.000001 0.000005 10.014200 5.302670 -0.002472 12.994500 -0.242716 -4.980390 88.363200 11.186000 -81.620600 -5.348130 -0.000001 -0.000004 -60.835500 19.503600 -13.368600 -24.328900 0.000322 -0.000009 1.218120 2.064100 -30.578100 -22.291500 -0.000108 -0.000004 15.067200 5.410110 -3.268950 -2.192480 -6.469440 -0.000000 -174.964000 -13.269800 2.230670 39.081100 -0.000007 -0.000012 -0.204982 0.346589 30.601600 40.985400 -0.000006 -0.000013 0.166782 5.259980 -73.042300 11.754300 -0.000000 0.000003 -0.000104 -0.001063 -16.618300 -2.192510 6.469440 -0.000001 171.709000 22.171600 -175.502000 -39.081100 -0.002282 -0.040193 -0.262826 0.462981 29.891300 -40.985400 0.000008 0.000006 2.092900 12.019600 -73.717900 -11.754300 -0.000006 -0.000006 -0.001426 -0.021284 -17.438600
0.000000 0.000000 0.000000 0.000000 0.000000 -0.000000 -0.352661 90.346400 3.667640 90.245000 -2.151280 9.546170 15.735700 0.000005 -0.000001 86.188000 83.034900 -86.403400 8.984550 -0.406207 -0.000000 6.132230 -0.920484 -0.380902 16.377300 -0.000001 -0.000001 5.865730 -6.018140 1.962460 6.456720 -0.000001 -0.000000 -9.925570 -6.006650 -0.287361 12.994200 -0.242716 4.980390 -91.997000 7.360780 -74.775100 5.348090 -0.000007 -0.000001 -59.904100 24.009700 -22.518700 24.328600 0.000019 0.000005 10.287100 17.222700 -31.507800 22.291600 -0.000001 0.000005 10.275200 5.306620 -0.114017 12.994500 -0.242716 -4.980390 88.375600 11.091100 -81.614000 -5.348130 -0.000001 -0.000004 -60.032100 18.556600 -14.439800 -24.328900 0.000322 -0.000009 1.353850 2.094470 -32.910400 -22.291500 -0.000108 -0.000004 15.242000 5.413610 -3.384910 -2.192480 -6.469440 -0.000000 -175.019000 -13.193500 2.253030 39.081100 -0.000007 -0.000012 -0.201329 0.339751 30.650400 40.985400 -0.000006 -0.000013 0.201611 5.348830 -73.000900 11.754300 -0.000000 0.000003 -0.000104 -0.001064 -16.618300 -2.192510 6.469440 -0.000001 171.605000 22.259100 -175.462000 -39.081100 -0.002282 -0.040193 -0.268480 0.470653 30.005000 -40.985400 0.000008 0.000006 2.091940 11.911700 -73.730400 -11.754300 -0.000006 -0.000006 -0.001432 -0.021372 -17.442200
0.000000 0.000000 0.000000 0.000000 0.000000 -0.000000 -0.366103 90.349300 3.569520 90.303900 -1.909080 9.668200 15.735700 0.000005 -0.000001 85.731300 83.062200 -85.956400 8.984550 -0.406207 -0.000000 6.069940 -1.026680 -0.395267 16.377300 -0.000001 -0.000001 6.382800 -6.094510 1.816370 6.456720 -0.000001 -0.000000 -8.995500 -5.889000 -0.713472 12.994200 -0.242716 4.980390 -91.942600 7.386470 -75.221100 5.348090 -0.000007 -0.000001 -58.453400 22.362700 -24.626800 24.328600 0.000019 0.000005 10.875600 17.057200 -33.224700 22.291600 -0.000001 0.000005 10.294300 5.311300 -0.246775 12.994500 -0.242716 -4.980390 88.391400 10.979300 -81.611900 -5.348130 -0.000001 -0.000004 -59.108700 17.572000 -15.765600 -24.328900 0.000322 -0.000009 1.494080 2.125180 -35.141600 -22.291500 -0.000108 -0.000004 15.398200 5.414280 -3.407530 -2.192480 -6.469440 -0.000000 -175.069000 -13.047400 2.244490 39.081100 -0.000007 -0.000012 -0.204355 0.344338 30.688300 40.985400 -0.000006 -0.000013 0.223887 5.435670 -72.921900 11.754300 -0.000000 0.000003 -0.000100 -0.001030 -16.617100 -2.192510 6.469440 -0.000001 171.520000 22.355100 -175.401000 -39.081100 -0.002282 -0.040193 -0.266323 0.465600 30.075200 -40.985400 0.000008 0.000006 2.085420 11.795600 -73.721300 -11.754300 -0.000006 -0.000006 -0.001326 -0.019940 -17.384000
